# xmcd CD database file
#
# Track frame offsets:
#	150
#	18713
#	36382
#	58611
#	85809
#	104949
#	131941
#	145734
#	165584
#	182472
#	204073
#	222382
#	243625
#	264816
#	285284
#
# Disc length: 4088 seconds
#
# Revision: 0
# Processed by: cddbd v1.5.2PL0 Copyright (c) Steve Scherf et al.
# Submitted via: CDex 1.70beta2
#
DISCID=da0ff60f
DTITLE=Various Artist - Salsa Gold
DYEAR=1900
DGENRE=Salsa
TTITLE0=Don Perignon  La Puertorriqueña - Distinto y diferente
TTITLE1=Willie Sotelo y La Mundial - El divorcio
TTITLE2=Pedro Brull - El malo de la película
TTITLE3=José Alberto El Canario - Canta Canario
TTITLE4=La solución - 30 Aniversario
TTITLE5=Son Boricua - Vamonos pa'l monte
TTITLE6=Oswaldo Román - Salsa
TTITLE7=Jimmy Saa - La primera dama
TTITLE8=Miami's Band - Como le explico
TTITLE9=El corte perfecto - Victima del amor
TTITLE10=Richie Valdés - El negro tiene su cuento
TTITLE11=Mariano Civico - Quererte a ti
TTITLE12=Kim de los Santos - Veneno
TTITLE13=Edward - Así
TTITLE14=Luisito Carrón - Que sabes tu de amor
EXTD=
EXTT0=
EXTT1=
EXTT2=
EXTT3=
EXTT4=
EXTT5=
EXTT6=
EXTT7=
EXTT8=
EXTT9=
EXTT10=
EXTT11=
EXTT12=
EXTT13=
EXTT14=
PLAYORDER=
